<?xml version="1.0" standalone="no"?>
<!DOCTYPE svg PUBLIC "-//W3C//DTD SVG 20010904//EN"
 "http://www.w3.org/TR/2001/REC-SVG-20010904/DTD/svg10.dtd">
<svg version="1.0" xmlns="http://www.w3.org/2000/svg"
 width="539.000000pt" height="503.000000pt" viewBox="0 0 539.000000 503.000000"
 preserveAspectRatio="xMidYMid meet">

<g transform="translate(0.000000,503.000000) scale(0.100000,-0.100000)"
fill="#000000" stroke="none">
<path d="M0 2515 l0 -2515 2695 0 2695 0 0 2515 0 2515 -2695 0 -2695 0 0
-2515z m2915 2085 c219 -25 431 -88 640 -189 423 -206 745 -539 933 -966 250
-569 207 -1242 -115 -1790 -57 -97 -70 -112 -82 -100 -7 7 5 33 36 80 53 82
149 278 187 385 35 97 82 289 96 393 17 120 14 394 -5 517 -137 887 -836 1549
-1732 1641 -213 22 -509 -5 -721 -66 -613 -176 -1103 -649 -1302 -1255 -135
-409 -126 -851 25 -1255 42 -113 126 -283 185 -374 33 -51 37 -61 22 -61 -12
0 -36 31 -73 93 -199 336 -290 694 -276 1086 7 195 34 350 90 522 76 229 171
410 316 596 311 401 778 668 1291 738 117 16 364 18 485 5z m65 -105 c704
-115 1275 -601 1484 -1264 57 -181 77 -303 83 -502 8 -256 -14 -417 -88 -646
-56 -172 -219 -493 -250 -493 -15 0 -11 8 48 103 110 178 190 379 240 599 26
115 27 138 27 363 0 223 -1 249 -26 366 -80 373 -255 690 -524 949 -113 109
-189 169 -302 239 -437 272 -956 350 -1457 221 -138 -36 -237 -74 -385 -151
-156 -81 -282 -173 -418 -304 -285 -275 -466 -610 -538 -1000 -29 -155 -27
-521 5 -665 49 -226 145 -465 256 -638 26 -40 44 -76 40 -80 -9 -9 -24 12 -90
123 -112 187 -206 454 -240 679 -20 135 -20 397 0 535 123 845 803 1492 1660
1580 118 13 356 5 475 -14z m-233 -337 c94 -117 353 -447 353 -450 0 -2 -61
-2 -135 0 l-135 3 0 -379 0 -378 -31 -23 c-17 -13 -80 -71 -140 -128 l-109
-105 -2 503 -3 504 -133 0 c-72 0 -132 2 -132 5 0 9 402 510 409 510 4 0 30
-28 58 -62z m1209 -682 c11 -16 14 -66 14 -243 l0 -223 -26 10 c-14 6 -43 10
-65 10 -35 0 -39 2 -39 25 0 26 -1 26 -72 23 l-73 -3 -5 -55 -5 -55 -72 -3
-73 -3 0 60 c0 61 -8 72 -42 63 -15 -3 -18 -16 -18 -63 l0 -59 -64 0 c-74 0
-83 8 -88 70 l-3 45 -67 3 c-63 3 -68 1 -68 -18 0 -24 -6 -26 -82 -34 l-58 -6
0 211 c0 219 4 243 43 259 12 5 208 8 435 7 397 -2 414 -3 428 -21z m-1948
-188 l3 -148 -161 0 -160 0 0 150 0 151 158 -3 157 -3 3 -147z m-188 -353 l0
-145 -160 0 -160 0 0 145 0 145 160 0 160 0 0 -145z m370 0 l0 -145 -155 0
-155 0 0 145 0 145 155 0 155 0 0 -145z m1063 32 c153 -65 188 -249 68 -368
-177 -178 -468 32 -356 257 23 46 81 100 125 117 29 11 131 7 163 -6z m705 -3
c144 -60 179 -258 65 -366 -68 -65 -184 -80 -270 -37 -56 29 -108 98 -118 159
-16 93 39 195 127 239 52 25 142 28 196 5z m-480 -126 c3 -63 1 -68 -18 -68
-15 0 -20 7 -20 28 0 15 -9 45 -19 68 l-19 41 37 -1 36 -1 3 -67z m142 58 c0
-8 -4 -17 -9 -20 -5 -3 -14 -29 -21 -56 -9 -38 -16 -50 -29 -48 -12 2 -17 17
-19 57 -2 29 -1 60 2 67 7 19 76 19 76 0z m-1801 -316 l-1 -150 -244 0 -244 0
0 150 0 150 245 0 245 0 -1 -150z m541 0 l0 -150 -240 0 -240 0 0 150 0 150
240 0 240 0 0 -150z m1120 75 l0 -65 -44 0 -43 0 23 47 c13 25 24 55 24 65 0
11 7 18 20 18 18 0 20 -7 20 -65z m110 43 c0 -12 11 -41 25 -65 l26 -43 -51 0
-50 0 0 58 c0 64 4 72 32 72 12 0 18 -7 18 -22z m161 -188 c43 -22 129 -29
187 -16 32 8 34 7 27 -15 -16 -51 -1 -49 -450 -49 -233 0 -430 3 -439 6 -10 4
-16 18 -16 39 l0 33 43 -15 c51 -18 126 -10 177 17 31 17 58 19 233 20 180 0
201 -2 238 -20z m-1301 -139 c0 -34 -63 -114 -109 -138 l-44 -23 -441 0 c-405
0 -444 2 -481 19 -58 26 -125 108 -125 152 0 5 235 9 600 9 581 0 600 -1 600
-19z m1670 1 c0 -31 -56 -108 -96 -133 l-39 -24 -462 0 c-451 0 -462 0 -489
21 -43 32 -83 86 -90 122 l-6 32 591 0 c563 0 591 -1 591 -18z m-1862 -351
c129 -33 252 -79 364 -138 l68 -35 77 40 c105 54 256 109 383 139 95 23 131
26 368 30 l262 5 0 -44 0 -44 -172 -43 c-295 -74 -550 -163 -746 -261 l-172
-87 -143 72 c-216 111 -444 190 -829 290 l-108 28 0 45 0 44 263 -5 c253 -4
266 -5 385 -36z m-848 -771 l0 -50 -75 0 -75 0 0 -195 0 -195 -55 0 -55 0 0
179 c0 99 -3 186 -6 195 -5 13 -22 16 -80 16 l-74 0 0 50 0 50 210 0 210 0 0
-50z m423 -155 c48 -110 97 -219 107 -242 l19 -43 -58 0 -59 0 -21 50 -22 50
-113 0 -114 0 -18 -50 -18 -50 -58 0 -58 0 14 33 c28 67 174 403 187 430 12
26 16 28 68 25 l55 -3 89 -200z m509 177 c116 -57 127 -219 21 -293 l-22 -15
33 -50 c18 -27 41 -61 51 -76 l17 -28 -59 0 -59 0 -48 70 -48 70 -49 0 -49 0
0 -70 0 -70 -54 0 -53 0 -6 68 c-4 37 -7 147 -7 246 l0 178 143 -4 c123 -3
148 -6 189 -26z m298 -217 l0 -245 -55 0 -55 0 0 245 0 245 55 0 55 0 0 -245z
m480 195 l0 -50 -125 0 -125 0 0 -55 0 -55 115 0 115 0 0 -50 0 -50 -115 0
-115 0 0 -90 0 -90 -53 0 -54 0 -6 107 c-9 138 -9 368 0 376 3 4 87 7 185 7
l178 0 0 -50z m159 44 l31 -6 0 -239 0 -239 -55 0 -54 0 -3 241 c-2 132 -1
243 1 245 6 6 44 5 80 -2z m515 -28 c60 -35 65 -50 30 -87 -33 -35 -41 -36
-72 -6 -20 18 -35 22 -92 22 -62 0 -71 -3 -100 -30 -60 -58 -64 -147 -9 -210
54 -61 131 -69 202 -21 l35 24 33 -34 c38 -39 35 -47 -43 -89 -45 -25 -64 -29
-124 -29 -58 1 -80 6 -124 30 -181 97 -181 342 0 437 50 26 62 29 136 25 66
-3 90 -9 128 -32z m405 19 c8 -8 61 -126 197 -442 l14 -33 -59 0 -58 0 -21 50
-21 50 -111 0 -112 0 -21 -50 -21 -50 -53 0 c-29 0 -53 2 -53 5 0 4 132 314
182 425 l25 55 51 0 c29 -1 56 -5 61 -10z m-1800 -655 c28 -15 32 -38 11 -58
-20 -19 -20 -19 1 -38 16 -14 23 -15 26 -6 9 24 21 11 20 -22 -1 -27 -5 -34
-21 -34 -12 -1 -35 -4 -52 -7 -22 -5 -36 -2 -47 10 -23 22 -21 40 5 65 17 16
19 23 10 32 -17 17 -15 45 6 57 21 13 20 13 41 1z m-1179 -15 c10 -12 5 -13
-38 -8 -44 5 -51 3 -66 -18 -21 -31 -20 -51 5 -83 21 -27 71 -36 84 -16 9 14
27 12 23 -2 -7 -21 -58 -28 -94 -13 -52 21 -62 88 -21 133 24 26 87 31 107 7z
m148 -32 c11 -27 27 -65 36 -85 10 -23 12 -38 6 -38 -6 0 -15 12 -20 26 -8 21
-15 25 -33 20 -12 -3 -34 -6 -48 -6 -17 0 -29 -8 -36 -22 -5 -12 -12 -18 -15
-12 -8 13 63 164 77 164 7 0 21 -21 33 -47z m106 -28 l-6 -75 46 0 c25 0 46
-5 46 -11 0 -6 -20 -9 -50 -7 l-51 3 -3 83 c-2 63 0 82 11 82 11 0 12 -16 7
-75z m230 69 c31 -12 15 -21 -28 -17 -37 5 -46 2 -60 -18 -22 -32 -20 -58 6
-86 23 -25 48 -29 78 -13 11 6 21 6 24 1 3 -5 -7 -14 -23 -20 -84 -36 -160 70
-96 134 24 25 65 32 99 19z m86 -57 c0 -67 11 -87 45 -87 42 0 50 15 47 85 -2
52 1 65 12 65 13 0 14 -12 9 -67 -6 -79 -19 -97 -68 -97 -51 0 -66 21 -72 98
-5 57 -3 66 11 66 13 0 16 -11 16 -63z m190 -12 l0 -75 45 0 c25 0 45 -5 45
-11 0 -6 -21 -9 -52 -7 l-53 3 -3 83 c-2 52 1 82 8 82 6 0 10 -30 10 -75z
m227 59 c2 -7 -12 -10 -39 -10 -32 1 -43 -3 -46 -16 -2 -11 8 -20 35 -28 48
-16 63 -28 63 -51 0 -41 -63 -64 -111 -39 -32 18 -21 28 19 17 79 -21 100 25
24 51 -52 17 -67 40 -46 71 13 18 24 21 57 19 22 -2 42 -8 44 -14z m497 -5
c34 -27 37 -96 5 -125 -33 -30 -96 -25 -125 9 -70 81 35 183 120 116z m188 4
c42 -38 6 -103 -57 -103 -28 0 -35 -4 -35 -19 0 -11 -4 -23 -10 -26 -6 -4 -10
25 -10 79 l0 86 47 0 c29 0 53 -6 65 -17z m168 7 c0 -5 -11 -10 -25 -10 -24 0
-25 -2 -25 -69 0 -39 -4 -73 -10 -76 -6 -4 -10 22 -10 69 l0 76 -29 0 c-17 0
-33 5 -36 10 -4 6 20 10 64 10 41 0 71 -4 71 -10z m60 -75 c0 -47 -4 -85 -9
-85 -5 0 -11 38 -13 85 -2 63 0 85 10 85 9 0 12 -24 12 -85z m109 30 c17 -30
33 -55 35 -55 2 0 18 25 35 55 17 30 36 55 41 55 6 0 10 -36 10 -87 0 -96 -17
-106 -22 -13 l-3 55 -29 -55 c-28 -53 -29 -54 -45 -33 -9 11 -25 36 -36 54
l-20 34 -5 -65 c-6 -83 -20 -55 -20 41 0 87 16 91 59 14z m201 -31 c0 -54 -4
-83 -10 -79 -5 3 -10 42 -10 86 0 46 4 79 10 79 6 0 10 -35 10 -86z m160 73
c0 -10 -13 -13 -42 -13 -32 1 -43 -3 -46 -16 -2 -11 8 -20 35 -28 48 -16 63
-28 63 -51 0 -20 -36 -49 -62 -49 -29 0 -69 19 -63 30 5 8 11 8 20 0 8 -6 29
-10 47 -8 25 2 33 8 33 23 0 14 -12 24 -45 35 -48 17 -64 47 -40 76 16 19 100
19 100 1z m163 -69 c38 -84 40 -114 5 -65 -16 21 -28 27 -59 27 -33 0 -41 -4
-49 -25 -5 -14 -14 -25 -20 -25 -11 0 -4 22 37 113 14 31 31 57 38 57 6 0 28
-37 48 -82z m177 72 c0 -5 -13 -10 -30 -10 l-30 0 0 -75 c0 -43 -4 -75 -10
-75 -6 0 -10 32 -10 75 0 73 -1 75 -24 75 -14 0 -28 5 -31 10 -4 6 20 10 64
10 41 0 71 -4 71 -10z m60 -69 c0 -44 -4 -83 -10 -86 -6 -4 -10 12 -10 42 0
26 -3 65 -6 86 -5 30 -4 37 10 37 13 0 16 -13 16 -79z m182 65 c66 -50 23
-156 -63 -156 -32 0 -79 53 -79 90 0 45 39 80 87 80 21 0 46 -6 55 -14z m146
-47 l47 -61 3 61 c5 94 22 73 22 -26 l-1 -88 -37 40 c-20 22 -47 54 -59 70
l-22 30 -1 -67 c0 -39 -4 -68 -10 -68 -6 0 -10 35 -10 85 0 50 4 85 10 85 6 0
31 -28 58 -61z"/>
<path d="M3137 3403 c-4 -3 -7 -60 -7 -125 l0 -118 378 2 377 3 0 120 0 120
-371 3 c-204 1 -373 -1 -377 -5z m551 -120 c-2 -53 -6 -68 -18 -68 -12 0 -16
15 -18 68 -3 62 -1 67 18 67 19 0 21 -5 18 -67z m70 0 c-2 -53 -6 -68 -18 -68
-12 0 -16 15 -18 68 -3 62 -1 67 18 67 19 0 21 -5 18 -67z m72 2 c0 -58 -2
-65 -20 -65 -18 0 -20 7 -20 58 0 61 4 72 27 72 9 0 13 -17 13 -65z"/>
<path d="M1737 3393 c-4 -3 -7 -15 -7 -25 0 -13 8 -18 30 -18 25 0 30 4 30 25
0 20 -5 25 -23 25 -13 0 -27 -3 -30 -7z"/>
<path d="M1900 3205 c0 -21 5 -25 30 -25 25 0 30 4 30 25 0 21 -5 25 -30 25
-25 0 -30 -4 -30 -25z"/>
<path d="M1542 3018 c2 -17 10 -23 28 -23 18 0 26 6 28 23 3 19 -1 22 -28 22
-27 0 -31 -3 -28 -22z"/>
<path d="M1920 3020 c0 -14 7 -20 23 -20 13 0 26 3 30 6 12 12 -6 34 -29 34
-17 0 -24 -6 -24 -20z"/>
<path d="M2090 2855 c0 -21 5 -25 30 -25 25 0 30 4 30 25 0 21 -5 25 -30 25
-25 0 -30 -4 -30 -25z"/>
<path d="M3150 2910 c0 -11 -7 -20 -15 -20 -27 0 -65 -47 -65 -79 0 -35 34
-66 91 -81 44 -12 56 -25 39 -45 -16 -19 -47 -19 -84 0 -16 9 -30 14 -31 13
-1 -2 -8 -13 -14 -26 -11 -21 -9 -24 23 -37 20 -8 40 -15 46 -15 5 0 9 -3 9
-7 -4 -25 3 -34 24 -31 16 2 22 9 21 26 0 12 5 22 13 22 23 0 63 47 63 75 0
14 5 25 11 25 8 0 8 4 -1 15 -6 8 -15 14 -18 13 -11 -4 -106 34 -121 48 -31
28 35 48 81 23 23 -13 27 -10 30 21 2 19 -3 26 -29 33 -22 7 -33 16 -33 28 0
12 -7 19 -20 19 -13 0 -20 -7 -20 -20z"/>
<path d="M3814 2900 c-24 -12 -49 -35 -60 -55 -10 -19 -26 -35 -35 -35 -9 0
-20 -7 -23 -16 -9 -23 -8 -24 14 -24 11 0 20 -7 20 -15 0 -9 -9 -15 -21 -15
-28 0 -21 -32 9 -40 12 -3 31 -19 41 -36 26 -43 82 -67 143 -62 57 6 73 18 63
47 -5 17 -10 19 -31 11 -43 -17 -81 -11 -111 15 l-28 24 68 1 c60 0 67 2 67
20 0 18 -7 20 -70 20 -50 0 -70 4 -70 13 0 7 10 13 23 13 111 1 127 4 127 24
0 18 -7 20 -70 20 -38 0 -70 4 -70 9 0 5 12 19 28 31 22 18 36 21 79 17 41 -4
53 -2 58 10 9 24 -9 35 -62 40 -35 3 -59 -1 -89 -17z"/>
<path d="M1370 2676 c0 -22 4 -26 31 -26 26 0 30 3 27 23 -2 16 -11 23 -30 25
-24 3 -28 0 -28 -22z"/>
<path d="M1364 2505 c-11 -28 10 -36 87 -33 66 3 74 5 74 23 0 18 -8 20 -78
23 -64 2 -78 0 -83 -13z"/>
<path d="M2260 2675 c0 -21 5 -25 30 -25 25 0 30 4 30 25 0 21 -5 25 -30 25
-25 0 -30 -4 -30 -25z"/>
<path d="M2172 2498 c3 -21 8 -23 81 -26 77 -3 78 -2 75 20 -3 21 -8 23 -81
26 -77 3 -78 2 -75 -20z"/>
<path d="M1652 1089 c-18 -44 -32 -84 -32 -89 0 -6 120 -7 137 -1 1 1 -68 164
-72 169 -1 1 -16 -34 -33 -79z"/>
<path d="M2130 1119 l0 -81 76 4 c65 3 79 7 95 27 27 32 24 77 -6 106 -21 22
-33 25 -95 25 l-70 0 0 -81z"/>
<path d="M4104 1088 c-16 -40 -29 -77 -29 -81 0 -4 30 -10 68 -12 37 -2 67 -1
67 3 0 16 -63 162 -70 162 -4 0 -20 -33 -36 -72z"/>
<path d="M2363 604 c-8 -21 13 -42 28 -27 13 13 5 43 -11 43 -6 0 -13 -7 -17
-16z"/>
<path d="M2350 525 c-19 -23 -4 -45 29 -45 38 0 48 16 25 41 -21 23 -37 24
-54 4z"/>
<path d="M1316 568 c-21 -49 -21 -48 19 -48 40 0 41 3 15 50 l-19 35 -15 -37z"/>
<path d="M2596 588 c-9 -12 -16 -33 -16 -45 0 -53 78 -84 113 -45 22 25 21 75
-1 95 -27 25 -78 22 -96 -5z"/>
<path d="M2800 570 c0 -38 2 -40 29 -40 26 0 61 21 61 36 0 25 -25 44 -55 44
-34 0 -35 -1 -35 -40z"/>
<path d="M3686 566 c-9 -21 -16 -40 -16 -42 0 -2 16 -4 35 -4 40 0 41 2 16 50
l-19 35 -16 -39z"/>
<path d="M4070 590 c-26 -26 -25 -51 1 -84 39 -50 109 -24 109 41 0 57 -69 84
-110 43z"/>
</g>
</svg>
